<?xml version="1.0" standalone="no"?>
<!DOCTYPE svg PUBLIC "-//W3C//DTD SVG 20010904//EN"
 "http://www.w3.org/TR/2001/REC-SVG-20010904/DTD/svg10.dtd">
<svg version="1.0" xmlns="http://www.w3.org/2000/svg"
 width="700.000000pt" height="700.000000pt" viewBox="0 0 700.000000 700.000000"
 preserveAspectRatio="xMidYMid meet">
<metadata>
Created by potrace 1.11, written by Peter Selinger 2001-2013
</metadata>
<g transform="translate(0.000000,700.000000) scale(0.100000,-0.100000)"
fill="#000000" stroke="none">
<path d="M0 3500 l0 -3500 3500 0 3500 0 0 3500 0 3500 -3500 0 -3500 0 0
-3500z m2712 1967 c383 -93 582 -348 618 -794 13 -167 13 -2019 0 -2186 -32
-385 -191 -637 -472 -747 -167 -65 -148 -63 -785 -67 l-583 -4 0 1911 0 1911
578 -4 c491 -3 587 -6 644 -20z m2179 7 c367 -63 578 -275 656 -661 17 -82 18
-172 18 -1238 l0 -1150 -22 -100 c-77 -347 -253 -538 -573 -626 -84 -23 -95
-23 -667 -27 l-583 -3 0 1910 0 1911 538 0 c450 0 554 -3 633 -16z"/>
<path d="M2090 3580 l0 -1372 213 4 c196 3 216 5 265 27 64 29 115 85 139 155
17 48 18 123 18 1186 0 1063 -1 1138 -18 1186 -24 70 -75 126 -139 155 -49 21
-70 23 -265 27 l-213 4 0 -1372z"/>
<path d="M4320 3580 l0 -1372 213 4 c196 3 216 6 265 27 99 45 147 127 162
280 12 125 12 1999 0 2114 -17 164 -62 243 -162 288 -49 21 -70 23 -265 27
l-213 4 0 -1372z"/>
</g>
</svg>
