<?xml version="1.0" standalone="no"?>
<!DOCTYPE svg PUBLIC "-//W3C//DTD SVG 20010904//EN"
 "http://www.w3.org/TR/2001/REC-SVG-20010904/DTD/svg10.dtd">
<svg version="1.0" xmlns="http://www.w3.org/2000/svg"
 width="792.000000pt" height="792.000000pt" viewBox="0 0 792.000000 792.000000"
 preserveAspectRatio="xMidYMid meet">
<metadata>
Created by potrace 1.11, written by Peter Selinger 2001-2013
</metadata>
<g transform="translate(0.000000,792.000000) scale(0.100000,-0.100000)"
fill="#000000" stroke="none">
<path d="M0 3960 l0 -3960 3960 0 3960 0 0 3960 0 3960 -3960 0 -3960 0 0
-3960z m2883 2250 c432 -35 701 -228 821 -589 73 -222 71 -169 71 -1566 0
-977 -3 -1269 -13 -1335 -79 -514 -350 -779 -852 -830 -52 -5 -350 -10 -662
-10 l-568 0 0 2163 c0 1190 3 2167 7 2170 10 11 1058 8 1196 -3z m2527 0 c465
-41 740 -261 845 -674 45 -176 46 -246 42 -1561 -3 -1121 -5 -1248 -21 -1324
-85 -419 -307 -654 -702 -742 -95 -21 -123 -22 -731 -26 l-633 -4 0 2170 0
2171 543 0 c298 0 594 -5 657 -10z"/>
<path d="M2370 4044 l0 -1546 233 5 c130 3 248 10 269 16 105 33 176 119 203
247 21 101 22 2465 1 2565 -27 126 -86 202 -183 239 -48 18 -77 20 -288 20
l-235 0 0 -1546z"/>
<path d="M4890 4044 l0 -1546 238 4 c265 6 299 12 371 75 45 38 75 89 99 168
14 44 16 201 19 1225 3 751 0 1212 -6 1276 -17 170 -64 259 -165 312 l-51 27
-252 3 -253 3 0 -1547z"/>
</g>
</svg>
